<svg id="Layer_1" data-name="Layer 1" xmlns="http://www.w3.org/2000/svg" xmlns:xlink="http://www.w3.org/1999/xlink" viewBox="0 0 3000 1000"><defs><style>.cls-1{fill:#232323;}.cls-2{fill:#093456;}.cls-3{fill:url(#linear-gradient);}.cls-4{fill:url(#linear-gradient-2);}.cls-5{fill:url(#linear-gradient-3);}</style><linearGradient id="linear-gradient" x1="641.26" y1="785.75" x2="641.26" y2="415.96" gradientUnits="userSpaceOnUse"><stop offset="0.15" stop-color="#093456"/><stop offset="1" stop-color="#4e89ac"/></linearGradient><linearGradient id="linear-gradient-2" x1="484.01" y1="764.73" x2="484.01" y2="417.32" gradientUnits="userSpaceOnUse"><stop offset="0.43" stop-color="#093456"/><stop offset="1" stop-color="#4e89ac"/></linearGradient><linearGradient id="linear-gradient-3" x1="326.64" y1="763.95" x2="326.64" y2="416.68" gradientUnits="userSpaceOnUse"><stop offset="0.31" stop-color="#093456"/><stop offset="1" stop-color="#4e89ac"/></linearGradient></defs><path class="cls-1" d="M1058.38,431.38q-37.22,0-65.22-16.8t-43.73-47.7q-15.72-30.9-15.72-73.36,0-43.53,16.17-74.53t44-47.51Q1021.71,155,1056.94,155a128.58,128.58,0,0,1,41.46,6.5A112.42,112.42,0,0,1,1132.73,180a102.63,102.63,0,0,1,24.75,28.46,101.53,101.53,0,0,1,12.74,36.13h-49.33a71.05,71.05,0,0,0-8.94-19.33,61.11,61.11,0,0,0-13.73-14.64,58.17,58.17,0,0,0-18.25-9.3,75.69,75.69,0,0,0-22.49-3.16q-21.69,0-38.76,11t-26.83,32.16q-9.75,21.13-9.75,51.85,0,30.36,9.75,51.58t26.92,32.35q17.16,11.1,39.75,11.11,20.6,0,35.68-7.95a56.16,56.16,0,0,0,23.31-22.59q8.22-14.62,8.22-34.51l11,1.81h-73.17V287h109v32.34q0,34.51-14.73,59.71a99.87,99.87,0,0,1-40.47,38.76Q1091.63,431.38,1058.38,431.38Z"/><path class="cls-1" d="M1184.57,427.77l94-269.21h61.25l96.12,269.21H1383l-47.88-139.85q-7-21.68-14.63-49.05t-16.81-62.24h10.12q-9,35.22-16.35,62.78t-13.82,48.51l-46.25,139.85Zm54.74-66.67V322.25h141.83V361.1Z"/><path class="cls-1" d="M1567.13,431.38q-35.42,0-63.41-16.44t-44.18-47.34q-16.17-30.9-16.17-74.26,0-43.53,16.17-74.53t44.18-47.42q28-16.44,63.41-16.44,35.23,0,63.15,16.44t44.08,47.42q16.17,31,16.17,74.53,0,43.37-16.17,74.35T1630.28,415Q1602.37,431.38,1567.13,431.38Zm0-43.18q21.87,0,38.76-10.93t26.47-32.16q9.57-21.24,9.57-51.77,0-30.88-9.57-52.12t-26.47-32.16q-16.91-10.94-38.76-10.93-22,0-39,11t-26.65,32.25q-9.68,21.22-9.67,51.94,0,30.54,9.67,51.68t26.65,32.16Q1545.09,388.2,1567.13,388.2Z"/><path class="cls-1" d="M1817.37,199.21V158.56h214.28v40.65h-82.93V427.77h-48.24V199.21Z"/><path class="cls-1" d="M2010.35,427.77l94-269.21h61.25l96.12,269.21h-52.94l-47.88-139.85q-7-21.68-14.63-49.05t-16.8-62.24h10.11q-9,35.22-16.35,62.78t-13.82,48.51l-46.25,139.85Zm54.74-66.67V322.25h141.84V361.1Z"/><path class="cls-1" d="M2285.35,427.77,2394.48,272.2v36.32l-101.36-150H2349l32.7,49.14q8.31,12.66,13.73,22.41t9.94,18.88q4.51,9.12,9.94,19.78h-11.75q5.61-10.65,10.12-19.69t10-18.88q5.51-9.85,14-22.5l33.25-49.14h54.56L2425.2,306.17V271.12l107.32,156.65h-56.73L2435,367.42q-7.41-11.39-12.19-19.33T2414,332.73l-9.21-17.16h8.31l-9,16.8q-4,7.41-8.86,15.54t-12.82,19.51l-41.56,60.35Z"/><path class="cls-1" d="M1035.26,802q-30.18,0-52.4-9.58T948.08,765q-12.55-17.79-13.82-42.37h41.37q1.26,14.64,9.49,24.21a49.29,49.29,0,0,0,21.41,14.28,84.51,84.51,0,0,0,28.54,4.69q17.17,0,30.45-5.33t21-15.17a35.92,35.92,0,0,0,7.77-22.86q0-11.75-6.78-19.24t-18.25-12.47A179.08,179.08,0,0,0,1043.2,682l-31.43-8.67q-33.07-8.85-51.59-26.2t-18.51-45q0-23.31,12.55-40.74t34.15-27.1q21.58-9.66,48.69-9.67,27.64,0,48.69,9.67t33.07,26.47a67.22,67.22,0,0,1,12.55,38.3h-40.11q-2-18.44-17.07-28.55t-38-10.11q-16.26,0-28.28,5.05t-18.61,14a33.39,33.39,0,0,0-6.59,20.32q0,12.84,7.86,20.69A57.28,57.28,0,0,0,1009.69,633a174.7,174.7,0,0,0,21.59,7.31l26.2,6.87a207.19,207.19,0,0,1,26.47,8.76,109.37,109.37,0,0,1,25.2,14.28,68.34,68.34,0,0,1,18.7,21.68Q1135,704.77,1135,723q0,22.77-11.75,40.66t-34,28.09Q1066.87,802,1035.26,802Z"/><path class="cls-1" d="M1288.08,801.07q-34.86,0-62.42-16.54T1182.3,737q-15.81-31-15.81-74,0-43.18,15.81-74.17t43.36-47.61q27.55-16.62,62.42-16.62t62.25,16.62q27.38,16.63,43.18,47.61T1409.32,663q0,43-15.81,74t-43.18,47.51Q1323,801.06,1288.08,801.07Zm0-37.58q23,0,41.11-11.48t28.73-34q10.56-22.49,10.56-55,0-32.88-10.56-55.38t-28.73-34q-18.17-11.48-41.11-11.48-23.13,0-41.37,11.57t-28.82,34.05q-10.58,22.5-10.57,55.2,0,32.52,10.57,54.92t28.82,34Q1264.95,763.49,1288.08,763.49Z"/><path class="cls-1" d="M1454.77,797.45V528.25H1496V762h122v35.41Z"/><path class="cls-1" d="M1752.48,801.61q-32.34,0-56.55-12.47t-37.49-34.24q-13.28-21.76-13.28-49.95V528.25h41.19V701.51q0,18.25,8,32.34a57.56,57.56,0,0,0,22.86,22.23q14.8,8.13,35.23,8.13,20.24,0,35-8.13a57.16,57.16,0,0,0,22.68-22.23q7.94-14.08,8-32.34V528.25h41.37V705q0,28.18-13.28,49.95t-37.4,34.24Q1784.64,801.61,1752.48,801.61Z"/><path class="cls-1" d="M1895.89,563.66V528.25h209v35.41h-83.65V797.45H1979.9V563.66Z"/><path class="cls-1" d="M2182.47,528.25v269.2h-41.2V528.25Z"/><path class="cls-1" d="M2349.11,801.07q-34.87,0-62.42-16.54T2243.32,737q-15.81-31-15.81-74,0-43.18,15.81-74.17t43.37-47.61q27.54-16.62,62.42-16.62t62.24,16.62q27.38,16.63,43.18,47.61T2470.34,663q0,43-15.81,74t-43.18,47.51Q2384,801.06,2349.11,801.07Zm0-37.58q22.93,0,41.1-11.48t28.73-34q10.57-22.49,10.57-55,0-32.88-10.57-55.38t-28.73-34q-18.15-11.48-41.1-11.48-23.13,0-41.38,11.57t-28.81,34.05q-10.58,22.5-10.57,55.2,0,32.52,10.57,54.92t28.81,34Q2326,763.49,2349.11,763.49Z"/><path class="cls-1" d="M2515.8,797.45V528.25h47.51L2664.67,688.5q5.05,8,11.38,19t13.38,24.84q7,13.81,13.91,30.08h-5.06q-1.64-15.36-2.44-30.44t-1.18-28.28q-.36-13.18-.36-22.22V528.25H2736v269.2h-47.7l-90.88-143.27q-7.23-11.74-14.18-23.67T2567.92,603q-8.4-15.62-20.51-38h6.51q.9,19.88,1.8,37.13t1.36,30.54q.45,13.27.45,21.23V797.45Z"/><path class="cls-1" d="M2879.27,802q-30.18,0-52.4-9.58T2792.09,765q-12.56-17.79-13.82-42.37h41.37q1.26,14.64,9.49,24.21a49.29,49.29,0,0,0,21.41,14.28,84.53,84.53,0,0,0,28.55,4.69q17.16,0,30.44-5.33t21-15.17a35.87,35.87,0,0,0,7.77-22.86q0-11.75-6.78-19.24t-18.25-12.47a179.34,179.34,0,0,0-26.1-8.76l-31.44-8.67q-33.06-8.85-51.59-26.2t-18.51-45q0-23.31,12.55-40.74t34.15-27.1q21.59-9.66,48.69-9.67,27.64,0,48.69,9.67t33.07,26.47a67.22,67.22,0,0,1,12.55,38.3h-40.11q-2-18.44-17.07-28.55t-38-10.11q-16.26,0-28.28,5.05t-18.61,14a33.32,33.32,0,0,0-6.59,20.32q0,12.84,7.86,20.69A57.28,57.28,0,0,0,2853.7,633a175.26,175.26,0,0,0,21.59,7.31l26.2,6.87a207.19,207.19,0,0,1,26.47,8.76,109.37,109.37,0,0,1,25.2,14.28,68.34,68.34,0,0,1,18.7,21.68Q2979,704.77,2979,723q0,22.77-11.75,40.66t-34.05,28.09Q2910.88,802,2879.27,802Z"/><path class="cls-2" d="M616,699.54a288.28,288.28,0,0,1-204.36,84.58c-159.71,0-289.18-129.47-289.18-289.17S251.94,205.77,411.65,205.77A288.25,288.25,0,0,1,616,290.36l86.44-86.44a410.13,410.13,0,0,0-291-120.62C184.2,83.3,0,267.5,0,494.72S184.2,906.14,411.42,906.14a410.1,410.1,0,0,0,290.8-120.39Z"/><rect class="cls-3" x="580.3" y="415.96" width="121.92" height="369.79"/><path class="cls-4" d="M423.05,495.93v268.8A268.69,268.69,0,0,0,545,729.67V495.93Z"/><path class="cls-5" d="M265.68,578.31V722.44A268.57,268.57,0,0,0,387.6,764V578.31Z"/></svg>
