<?xml version="1.0" encoding="utf-8"?>
<!-- Generator: Adobe Illustrator 26.1.0, SVG Export Plug-In . SVG Version: 6.00 Build 0)  -->
<svg version="1.1" id="Layer_1" xmlns="http://www.w3.org/2000/svg" xmlns:xlink="http://www.w3.org/1999/xlink" x="0px" y="0px"
	 viewBox="0 0 3000 1000" style="enable-background:new 0 0 3000 1000;" xml:space="preserve">
<style type="text/css">
	.st0{fill:#FFFFFF;}
</style>
<path class="st0" d="M1058.4,431.4c-24.8,0-46.6-5.6-65.2-16.8c-18.7-11.2-33.2-27.1-43.7-47.7c-10.5-20.6-15.7-45.1-15.7-73.4
	c0-29,5.4-53.9,16.2-74.5c10.8-20.7,25.4-36.5,44-47.5c18.6-11,39.6-16.5,63.1-16.5c14.1-0.1,28.1,2.1,41.5,6.5
	c12.4,4.1,24.1,10.4,34.3,18.5c9.9,7.9,18.3,17.5,24.8,28.5c6.5,11.1,10.8,23.4,12.7,36.1h-49.3c-2-6.9-5-13.4-8.9-19.3
	c-3.7-5.6-8.4-10.6-13.7-14.6c-5.5-4.2-11.7-7.3-18.2-9.3c-7.3-2.2-14.9-3.2-22.5-3.2c-14.5,0-27.4,3.7-38.8,11
	c-11.4,7.3-20.3,18.1-26.8,32.2c-6.5,14.1-9.8,31.4-9.8,51.8c0,20.2,3.2,37.4,9.8,51.6s15.5,24.9,26.9,32.4
	c11.4,7.4,24.7,11.1,39.8,11.1c13.7,0,25.6-2.7,35.7-8c9.8-5.1,17.9-12.9,23.3-22.6c5.5-9.7,8.2-21.2,8.2-34.5l11,1.8h-73.2v-38h109
	v32.3c0,23-4.9,42.9-14.7,59.7c-9.5,16.5-23.6,30-40.5,38.8C1100.2,426.9,1080.5,431.4,1058.4,431.4z"/>
<path class="st0" d="M1184.6,427.8l94-269.2h61.2l96.1,269.2H1383l-47.9-139.9c-4.7-14.5-9.5-30.8-14.6-49.1s-10.7-39-16.8-62.2
	h10.1c-6,23.5-11.4,44.4-16.3,62.8s-9.5,34.5-13.8,48.5l-46.2,139.9H1184.6z M1239.3,361.1v-38.8h141.8v38.9L1239.3,361.1z"/>
<path class="st0" d="M1567.1,431.4c-23.6,0-44.8-5.5-63.4-16.4c-18.7-11-33.4-26.7-44.2-47.3c-10.8-20.6-16.2-45.4-16.2-74.3
	c0-29,5.4-53.9,16.2-74.5s25.5-36.5,44.2-47.4c18.7-11,39.8-16.4,63.4-16.4c23.5,0,44.5,5.5,63.2,16.4c18.6,11,33.3,26.8,44.1,47.4
	c10.8,20.7,16.2,45.5,16.2,74.5c0,28.9-5.4,53.7-16.2,74.4s-25.5,36.4-44.1,47.3C1611.7,425.9,1590.6,431.4,1567.1,431.4z
	 M1567.1,388.2c14.6,0,27.5-3.6,38.8-10.9s20.1-18,26.5-32.2c6.4-14.2,9.6-31.4,9.6-51.8c0-20.6-3.2-38-9.6-52.1
	c-6.4-14.2-15.2-24.9-26.5-32.2c-11.3-7.3-24.2-10.9-38.8-10.9c-14.7,0-27.7,3.7-39,11c-11.3,7.3-20.2,18.1-26.7,32.2
	c-6.5,14.1-9.7,31.5-9.7,51.9c0,20.4,3.2,37.6,9.7,51.7s15.3,24.8,26.7,32.2C1539.4,384.5,1552.4,388.2,1567.1,388.2z"/>
<path class="st0" d="M1817.4,199.2v-40.7h214.3v40.6h-82.9v228.6h-48.2V199.2H1817.4z"/>
<path class="st0" d="M2010.3,427.8l94-269.2h61.2l96.1,269.2h-52.9l-47.9-139.9c-4.7-14.5-9.5-30.8-14.6-49.1s-10.7-39-16.8-62.2
	h10.1c-6,23.5-11.4,44.4-16.4,62.8s-9.5,34.5-13.8,48.5l-46.2,139.9H2010.3z M2065.1,361.1v-38.8h141.8v38.9L2065.1,361.1z"/>
<path class="st0" d="M2285.4,427.8l109.1-155.6v36.3l-101.4-150h55.9l32.7,49.1c5.5,8.4,10.1,15.9,13.7,22.4s6.9,12.8,9.9,18.9
	c3,6.1,6.3,12.7,9.9,19.8h-11.8c3.7-7.1,7.1-13.7,10.1-19.7c3-6,6.3-12.3,10-18.9c3.7-6.6,8.3-14.1,14-22.5l33.2-49.1h54.6
	l-100.3,147.6v-35.1l107.3,156.6h-56.7l-40.8-60.3c-4.9-7.6-9-14-12.2-19.3s-6.1-10.4-8.8-15.4l-9.2-17.2h8.3l-9,16.8
	c-2.7,4.9-5.6,10.1-8.9,15.5c-3.2,5.4-7.5,11.9-12.8,19.5l-41.6,60.4L2285.4,427.8z"/>
<path class="st0" d="M1035.3,802c-20.1,0-37.6-3.2-52.4-9.6c-14.8-6.4-26.4-15.5-34.8-27.4c-8.4-11.9-13-26-13.8-42.4h41.4
	c0.8,9.8,4,17.8,9.5,24.2c5.7,6.6,13.1,11.5,21.4,14.3c9.2,3.2,18.8,4.8,28.5,4.7c11.4,0,21.6-1.8,30.4-5.3s15.9-8.6,21-15.2
	c5.2-6.5,7.9-14.6,7.8-22.9c0-7.8-2.3-14.2-6.8-19.2c-4.5-5-10.6-9.2-18.2-12.5c-8.4-3.6-17.2-6.5-26.1-8.7l-31.4-8.7
	c-22-5.9-39.2-14.6-51.6-26.2s-18.5-26.6-18.5-45c0-15.5,4.2-29.1,12.5-40.7c8.4-11.6,19.8-20.7,34.2-27.1
	c14.4-6.4,30.6-9.7,48.7-9.7c18.4,0,34.7,3.2,48.7,9.7c14,6.4,25.1,15.3,33.1,26.5c8,11.2,12.4,24.6,12.6,38.3h-40.1
	c-1.3-12.3-7-21.8-17.1-28.5s-22.7-10.1-38-10.1c-10.8,0-20.3,1.7-28.3,5c-8,3.4-14.2,8-18.6,14c-4.4,5.9-6.7,13-6.6,20.3
	c0,8.6,2.6,15.5,7.9,20.7c5.5,5.4,12,9.7,19.1,12.5c7,2.9,14.2,5.3,21.6,7.3l26.2,6.9c9,2.3,17.9,5.2,26.5,8.8
	c9,3.6,17.5,8.4,25.2,14.3c7.7,5.8,14.1,13.2,18.7,21.7c4.8,8.6,7.2,18.9,7.2,31.1c0,15.2-3.9,28.7-11.8,40.7s-19.2,21.3-34,28.1
	C1074.3,798.6,1056.3,802,1035.3,802z"/>
<path class="st0" d="M1288.1,801.1c-23.2,0-44-5.5-62.4-16.5s-32.8-26.9-43.4-47.5c-10.5-20.7-15.8-45.3-15.8-74
	c0-28.8,5.3-53.5,15.8-74.2c10.5-20.7,25-36.5,43.4-47.6c18.4-11.1,39.2-16.6,62.4-16.6s44,5.5,62.2,16.6
	c18.3,11.1,32.6,27,43.2,47.6c10.5,20.7,15.8,45.4,15.8,74.2c0,28.7-5.3,53.3-15.8,74s-24.9,36.5-43.2,47.5
	C1332.1,795.5,1311.4,801.1,1288.1,801.1z M1288.1,763.5c15.3,0,29-3.8,41.1-11.5s21.7-19,28.7-34c7-15,10.6-33.3,10.6-55
	c0-21.9-3.5-40.4-10.6-55.4s-16.6-26.3-28.7-34c-12.1-7.7-25.8-11.5-41.1-11.5c-15.4,0-29.2,3.9-41.4,11.6
	c-12.2,7.7-21.8,19.1-28.8,34c-7.1,15-10.6,33.4-10.6,55.2c0,21.7,3.5,40,10.6,54.9s16.7,26.3,28.8,34
	C1258.9,759.6,1272.7,763.5,1288.1,763.5z"/>
<path class="st0" d="M1454.8,797.5V528.2h41.2V762h122v35.4L1454.8,797.5z"/>
<path class="st0" d="M1752.5,801.6c-21.6,0-40.4-4.2-56.6-12.5c-16.1-8.3-28.6-19.7-37.5-34.2c-8.9-14.5-13.3-31.2-13.3-50V528.2
	h41.2v173.3c0,12.2,2.7,22.9,8,32.3c5.4,9.4,13.3,17.1,22.9,22.2c9.9,5.4,21.6,8.1,35.2,8.1c13.5,0,25.2-2.7,35-8.1
	c9.5-5.1,17.4-12.8,22.7-22.2c5.3-9.4,8-20.2,8-32.3V528.2h41.4V705c0,18.8-4.4,35.4-13.3,50c-8.9,14.5-21.3,25.9-37.4,34.2
	C1792.7,797.5,1773.9,801.6,1752.5,801.6z"/>
<path class="st0" d="M1895.9,563.7v-35.4h209v35.4h-83.7v233.8h-41.3V563.7H1895.9z"/>
<path class="st0" d="M2182.5,528.2v269.2h-41.2V528.2H2182.5z"/>
<path class="st0" d="M2349.1,801.1c-23.2,0-44.1-5.5-62.4-16.5c-18.4-11-32.8-26.9-43.4-47.5c-10.5-20.7-15.8-45.3-15.8-74
	c0-28.8,5.3-53.5,15.8-74.2c10.5-20.7,25-36.5,43.4-47.6c18.4-11.1,39.2-16.6,62.4-16.6c23.3,0,44,5.5,62.2,16.6
	c18.3,11.1,32.6,27,43.2,47.6c10.5,20.7,15.8,45.4,15.8,74.2c0,28.7-5.3,53.3-15.8,74s-24.9,36.5-43.2,47.5
	C2393.1,795.5,2372.4,801.1,2349.1,801.1z M2349.1,763.5c15.3,0,29-3.8,41.1-11.5c12.1-7.7,21.7-19,28.7-34c7-15,10.6-33.3,10.6-55
	c0-21.9-3.5-40.4-10.6-55.4c-7-15-16.6-26.3-28.7-34c-12.1-7.7-25.8-11.5-41.1-11.5c-15.4,0-29.2,3.9-41.4,11.6
	c-12.2,7.7-21.8,19.1-28.8,34c-7.1,15-10.6,33.4-10.6,55.2c0,21.7,3.5,40,10.6,54.9c7,14.9,16.7,26.3,28.8,34
	C2319.9,759.6,2333.7,763.5,2349.1,763.5z"/>
<path class="st0" d="M2515.8,797.5V528.2h47.5l101.4,160.2c3.4,5.3,7.2,11.7,11.4,19s8.7,15.6,13.4,24.8c4.7,9.2,9.3,19.2,13.9,30.1
	h-5.1c-1.1-10.2-1.9-20.4-2.4-30.4c-0.5-10.1-0.9-19.5-1.2-28.3c-0.2-8.8-0.4-16.2-0.4-22.2V528.2h41.7v269.2h-47.7l-90.9-143.3
	c-4.8-7.8-9.5-15.7-14.2-23.7s-9.7-17.1-15.3-27.5c-5.6-10.4-12.4-23.1-20.5-38h6.5c0.6,13.3,1.2,25.6,1.8,37.1s1.1,21.7,1.4,30.5
	c0.3,8.8,0.4,15.9,0.4,21.2v143.6H2515.8z"/>
<path class="st0" d="M2879.3,802c-20.1,0-37.6-3.2-52.4-9.6c-14.8-6.4-26.4-15.5-34.8-27.4c-8.4-11.9-13-26-13.8-42.4h41.4
	c0.8,9.8,4,17.8,9.5,24.2c5.7,6.6,13.1,11.5,21.4,14.3c9.2,3.2,18.8,4.8,28.6,4.7c11.4,0,21.6-1.8,30.4-5.3
	c8.9-3.6,15.9-8.6,21-15.2c5.2-6.5,7.9-14.6,7.8-22.9c0-7.8-2.3-14.2-6.8-19.2c-4.5-5-10.6-9.2-18.2-12.5
	c-8.5-3.6-17.2-6.5-26.1-8.8l-31.4-8.7c-22-5.9-39.2-14.6-51.6-26.2c-12.4-11.6-18.5-26.6-18.5-45c0-15.5,4.2-29.1,12.6-40.7
	s19.8-20.7,34.1-27.1c14.4-6.4,30.6-9.7,48.7-9.7c18.4,0,34.7,3.2,48.7,9.7c14,6.4,25.1,15.3,33.1,26.5c8,11.2,12.4,24.6,12.6,38.3
	h-40.1c-1.3-12.3-7-21.8-17.1-28.5c-10-6.7-22.7-10.1-38-10.1c-10.8,0-20.3,1.7-28.3,5c-8,3.4-14.2,8-18.6,14
	c-4.4,5.9-6.7,13-6.6,20.3c0,8.6,2.6,15.5,7.9,20.7c5.5,5.4,12,9.7,19.2,12.6c7,2.9,14.2,5.3,21.6,7.3l26.2,6.9
	c9,2.3,17.9,5.2,26.5,8.8c9,3.6,17.5,8.4,25.2,14.3c7.7,5.8,14.1,13.2,18.7,21.7c4.8,8.6,7.1,18.9,7.1,31.1
	c0,15.2-3.9,28.7-11.8,40.7s-19.2,21.3-34.1,28.1C2918.3,798.6,2900.3,802,2879.3,802z"/>
<path class="st0" d="M616,699.5c-54.2,54.2-127.7,84.7-204.4,84.6c-159.7,0-289.2-129.5-289.2-289.2s129.5-289.2,289.2-289.2
	c76.7-0.1,150.2,30.3,204.4,84.6l86.4-86.4c-77.1-77.3-181.8-120.8-291-120.6C184.2,83.3,0,267.5,0,494.7s184.2,411.4,411.4,411.4
	c109.1,0.1,213.7-43.2,290.8-120.4L616,699.5z"/>
<rect x="580.3" y="416" class="st0" width="121.9" height="369.8"/>
<path class="st0" d="M423,495.9v268.8c42.9-1.8,84.7-13.8,122-35.1V495.9H423z"/>
<path class="st0" d="M265.7,578.3v144.1c36.7,23.5,78.5,37.8,121.9,41.6V578.3H265.7z"/>
</svg>
